<svg xmlns="http://www.w3.org/2000/svg" width="512" height="512"><defs><linearGradient id="a" x1=".5" x2=".5" y2="1" gradientUnits="objectBoundingBox"><stop offset="0" stop-color="#ffb508"/><stop offset="1" stop-color="#fc2a02"/></linearGradient></defs><g transform="translate(-15653 -3881)"><circle cx="256" cy="256" r="256" fill="url(#a)" data-name="Ellipse 22-2" transform="translate(15653 3881)"/><g data-name="tron"><path fill="#fff" d="M16030.93 4068.514c-11.788-8.245-24.393-17.035-36.727-25.756a9.979 9.979 0 0 0-.886-.613 16.573 16.573 0 0 0-4.838-2.726l-.136-.068c-32.979-7.972-66.5-16.149-98.937-24.053q-44.154-10.733-88.239-21.464c-.75-.2-1.5-.409-2.317-.613a22.533 22.533 0 0 0-8.994-1.158 6.262 6.262 0 0 0-2.521.954l-.818.681a9.989 9.989 0 0 0-2.317 3.679l-.2.545v3.134l.136.477c18.6 52.126 37.68 105 56.078 156.173 14.173 39.384 28.891 80.2 43.268 120.264a7.219 7.219 0 0 0 6.541 4.77h.681a7.675 7.675 0 0 0 6.814-3.748l53.966-78.7q19.726-28.72 39.452-57.509c5.383-7.836 10.766-15.74 16.149-23.576 8.858-12.946 17.989-26.3 27.051-39.316l.477-.681v-.818c.2-2.385.273-7.291-3.679-9.88m-63.237 28.688c-12.674 6.609-25.62 13.423-38.634 20.169 7.563-8.108 15.2-16.285 22.758-24.394 9.471-10.221 19.351-20.782 29.027-31.139l.2-.2a31.149 31.149 0 0 1 2.93-3.2c.75-.75 1.567-1.5 2.317-2.385a1444.248 1444.248 0 0 1 15.059 10.493q5.314 3.781 10.834 7.563c-14.99 7.632-29.981 15.467-44.494 23.1m-32.57-3.271a5818.896 5818.896 0 0 1-29.845 32.093 19031.681 19031.681 0 0 0-58.463-70.591c-8.722-10.493-17.512-21.055-26.233-31.548l-.068-.068c-1.976-2.249-3.884-4.7-5.792-7.018-1.227-1.567-2.521-3.066-3.816-4.633 7.9 2.044 15.876 3.952 23.712 5.792 6.882 1.635 14.036 3.339 21.055 5.11q59.28 14.411 118.629 28.822c-13.151 14.036-26.37 28.277-39.18 42.041m-34.274 132.8c.75-7.155 1.567-14.513 2.249-21.736.613-5.792 1.226-11.72 1.84-17.375.954-9.062 1.976-18.465 2.794-27.664l.2-1.635c.681-5.86 1.363-11.924 1.772-17.988a20.4 20.4 0 0 1 2.453-1.158 31.754 31.754 0 0 0 3.066-1.5q23.61-12.368 47.288-24.666a17560.49 17560.49 0 0 0 47.9-25.007 13288.274 13288.274 0 0 0-43.4 63.232c-12.2 17.784-24.734 36.113-37.2 54.17-4.906 7.223-10.016 14.582-14.854 21.668-5.451 7.9-11.038 16.012-16.49 24.121.681-8.177 1.5-16.421 2.385-24.462m-94.983-198.492c-.886-2.453-1.84-4.974-2.657-7.359 18.4 22.213 36.931 44.562 54.988 66.23 9.335 11.243 18.67 22.417 28 33.728 1.84 2.112 3.679 4.361 5.451 6.541 2.317 2.794 4.633 5.724 7.154 8.517-.818 7.018-1.5 14.1-2.249 20.918-.477 4.77-.954 9.539-1.5 14.377v.068c-.2 3.066-.613 6.132-.954 9.131-.477 4.156-1.567 13.56-1.567 13.56l-.068.477c-1.226 13.764-2.726 27.664-4.156 41.156-.613 5.587-1.158 11.311-1.772 17.035-.341-1.022-.749-2.044-1.09-3a310.558 310.558 0 0 1-3-8.381l-7.291-20.237q-34.648-96.383-69.3-192.763" data-name="Path 319"/></g></g></svg>